<svg width="720" height="430" viewBox="0 0 720 430" fill="none" xmlns="http://www.w3.org/2000/svg" role="img" aria-label="OSS contribution panel">
  <defs>
    <linearGradient id="topline" x1="20" y1="0" x2="700" y2="0" gradientUnits="userSpaceOnUse">
      <stop stop-color="#33B5E5" />
      <stop offset="1" stop-color="#73BF69" />
    </linearGradient>
    <filter id="glow" x="-50%" y="-50%" width="200%" height="200%">
      <feGaussianBlur stdDeviation="8" result="blur" />
      <feMerge>
        <feMergeNode in="blur" />
        <feMergeNode in="SourceGraphic" />
      </feMerge>
    </filter>
  </defs>

  <rect x="0" y="0" width="720" height="430" rx="18" fill="#111217" />
  <rect x="0" y="0" width="720" height="4" rx="4" fill="url(#topline)" />
  <rect x="14" y="14" width="692" height="402" rx="16" fill="#161A22" stroke="#2A3441" />

  <text x="28" y="44" class="title">OSS Contribution Panel</text>
  <circle cx="286" cy="38" r="5" fill="#73BF69" filter="url(#glow)" />
  <text x="300" y="43" class="live">LIVE</text>
  <text x="692" y="43" text-anchor="end" class="meta">refreshed 2026-05-20 18:05 UTC</text>

  <rect x="28" y="62" width="162" height="84" rx="14" fill="#1D2430" stroke="#2F3B4C" />
  <text x="44" y="88" class="panelLabel">Open OSS PRs</text>
  <text x="44" y="125" class="bigValue">1</text>
  <text x="44" y="138" class="panelMeta">outside your own repos</text>

  <rect x="202" y="62" width="162" height="84" rx="14" fill="#1D2430" stroke="#2F3B4C" />
  <text x="218" y="88" class="panelLabel">Merged OSS PRs</text>
  <text x="218" y="125" class="bigValue">0</text>
  <text x="218" y="138" class="panelMeta">public merged history</text>

  <rect x="376" y="62" width="316" height="122" rx="14" fill="#1D2430" stroke="#2F3B4C" />
  <text x="392" y="88" class="panelLabel">Public PR activity (last 6 months)</text>
  
      <rect x="424" y="142" width="24" height="0" rx="6" fill="#33B5E5" opacity="0.22" />
      <text x="436" y="160" text-anchor="middle" class="axis">Dec</text>
      <text x="436" y="134" text-anchor="middle" class="tiny">0</text>
    
      <rect x="467" y="128" width="24" height="14" rx="6" fill="#33B5E5" opacity="0.88" />
      <text x="479" y="160" text-anchor="middle" class="axis">Jan</text>
      <text x="479" y="120" text-anchor="middle" class="tiny">1</text>
    
      <rect x="510" y="142" width="24" height="0" rx="6" fill="#33B5E5" opacity="0.22" />
      <text x="522" y="160" text-anchor="middle" class="axis">Feb</text>
      <text x="522" y="134" text-anchor="middle" class="tiny">0</text>
    
      <rect x="553" y="142" width="24" height="0" rx="6" fill="#33B5E5" opacity="0.22" />
      <text x="565" y="160" text-anchor="middle" class="axis">Mar</text>
      <text x="565" y="134" text-anchor="middle" class="tiny">0</text>
    
      <rect x="596" y="142" width="24" height="0" rx="6" fill="#33B5E5" opacity="0.22" />
      <text x="608" y="160" text-anchor="middle" class="axis">Apr</text>
      <text x="608" y="134" text-anchor="middle" class="tiny">0</text>
    
      <rect x="639" y="86" width="24" height="56" rx="6" fill="#33B5E5" opacity="0.88" />
      <text x="651" y="160" text-anchor="middle" class="axis">May</text>
      <text x="651" y="78" text-anchor="middle" class="tiny">4</text>
    

  <rect x="28" y="160" width="664" height="92" rx="14" fill="#1D2430" stroke="#2F3B4C" />
  <text x="44" y="186" class="panelLabel">Featured contribution</text>
  
    <text x="44" y="205" class="repo">jenkinsci/jenkins</text>
    <rect x="592" y="176" width="84" height="26" rx="13" fill="#33B5E5" opacity="0.18" />
    <text x="634" y="194" text-anchor="middle" class="state" fill="#33B5E5">OPEN</text>
    <text x="44" y="226" class="prTitle">Add shared editor search for code</text>
    <text x="44" y="248" class="prTitle">editors</text>
    <text x="44" y="238" class="hidden"></text>
    <text x="472" y="226" class="panelMeta">PR #26789</text>
    <text x="472" y="246" class="panelMeta">updated May 19, 2026</text>
    <text x="586" y="226" class="panelMeta">created May 14, 2026</text>
    <text x="586" y="246" class="panelMeta">1 day ago</text>
  

  <rect x="28" y="264" width="664" height="138" rx="14" fill="#1D2430" stroke="#2F3B4C" />
  <text x="44" y="290" class="panelLabel">Recent public pull requests</text>
  
      <line x1="28" y1="289" x2="692" y2="289" stroke="#293241" stroke-width="1" />
      <circle cx="43" cy="304" r="5" fill="#33B5E5" />
      <text x="58" y="309" class="rowRepo">jenkinsci/jenkins</text>
      <text x="292" y="309" class="rowTitle">Add shared editor search for code edito...</text>
      <text x="610" y="309" text-anchor="end" class="rowMeta">#26789</text>
      <text x="684" y="309" text-anchor="end" class="rowMeta">1 day ago</text>
    
      <line x1="28" y1="317" x2="692" y2="317" stroke="#293241" stroke-width="1" />
      <circle cx="43" cy="332" r="5" fill="#F2495C" />
      <text x="58" y="337" class="rowRepo">jenkinsci/jenkins</text>
      <text x="292" y="337" class="rowTitle">Add shared editor search for code edito...</text>
      <text x="610" y="337" text-anchor="end" class="rowMeta">#26787</text>
      <text x="684" y="337" text-anchor="end" class="rowMeta">5 days ago</text>
    
      <line x1="28" y1="345" x2="692" y2="345" stroke="#293241" stroke-width="1" />
      <circle cx="43" cy="360" r="5" fill="#F2495C" />
      <text x="58" y="365" class="rowRepo">jenkinsci/workflow-cps-plugin</text>
      <text x="292" y="365" class="rowTitle">Enable Pipeline editor search shortcut</text>
      <text x="610" y="365" text-anchor="end" class="rowMeta">#1779</text>
      <text x="684" y="365" text-anchor="end" class="rowMeta">5 days ago</text>
    
      <line x1="28" y1="373" x2="692" y2="373" stroke="#293241" stroke-width="1" />
      <circle cx="43" cy="388" r="5" fill="#F2495C" />
      <text x="58" y="393" class="rowRepo">jenkinsci/cla</text>
      <text x="292" y="393" class="rowTitle">Update pr.txt with CLA submission detai...</text>
      <text x="610" y="393" text-anchor="end" class="rowMeta">#117</text>
      <text x="684" y="393" text-anchor="end" class="rowMeta">6 days ago</text>
    

  <style>
    .title { fill: #E5E7EB; font: 700 22px -apple-system, BlinkMacSystemFont, "Segoe UI", sans-serif; }
    .live { fill: #73BF69; font: 700 12px -apple-system, BlinkMacSystemFont, "Segoe UI", sans-serif; letter-spacing: 1.2px; }
    .meta { fill: #8B97A7; font: 500 11px -apple-system, BlinkMacSystemFont, "Segoe UI", sans-serif; }
    .panelLabel { fill: #9CA9B7; font: 600 12px -apple-system, BlinkMacSystemFont, "Segoe UI", sans-serif; letter-spacing: 0.6px; text-transform: uppercase; }
    .bigValue { fill: #F9FAFB; font: 700 34px -apple-system, BlinkMacSystemFont, "Segoe UI", sans-serif; }
    .panelMeta { fill: #8B97A7; font: 500 12px -apple-system, BlinkMacSystemFont, "Segoe UI", sans-serif; }
    .repo { fill: #33B5E5; font: 700 13px ui-monospace, SFMono-Regular, Menlo, Monaco, Consolas, monospace; }
    .state { font: 700 11px -apple-system, BlinkMacSystemFont, "Segoe UI", sans-serif; letter-spacing: 0.8px; }
    .prTitle { fill: #E5E7EB; font: 700 20px -apple-system, BlinkMacSystemFont, "Segoe UI", sans-serif; }
    .rowRepo { fill: #A5D8FF; font: 600 12px ui-monospace, SFMono-Regular, Menlo, Monaco, Consolas, monospace; }
    .rowTitle { fill: #E5E7EB; font: 600 13px -apple-system, BlinkMacSystemFont, "Segoe UI", sans-serif; }
    .rowMeta { fill: #9CA9B7; font: 500 12px -apple-system, BlinkMacSystemFont, "Segoe UI", sans-serif; }
    .rowPlaceholder { fill: #6B7280; font: 500 12px ui-monospace, SFMono-Regular, Menlo, Monaco, Consolas, monospace; }
    .axis { fill: #7B8794; font: 500 10px -apple-system, BlinkMacSystemFont, "Segoe UI", sans-serif; }
    .tiny { fill: #A5D8FF; font: 600 10px -apple-system, BlinkMacSystemFont, "Segoe UI", sans-serif; }
    .hidden { display: none; }
  </style>
</svg>